<?xml version="1.0" encoding="UTF-8" standalone="no"?>
<!DOCTYPE svg PUBLIC "-//W3C//DTD SVG 1.1//EN" "http://www.w3.org/Graphics/SVG/1.1/DTD/svg11.dtd">
<svg width="100%" height="100%" viewBox="0 0 1000 1001" version="1.1" xmlns="http://www.w3.org/2000/svg" xmlns:xlink="http://www.w3.org/1999/xlink" xml:space="preserve" style="fill-rule:evenodd;clip-rule:evenodd;stroke-linejoin:round;stroke-miterlimit:2;">
    <g transform="matrix(1,0,0,1,0,-1095)">
        <g id="encoding.group-b-icon" transform="matrix(1,0,0,1,0,1095.4)">
            <rect x="0" y="0" width="1000" height="1000" style="fill:none;"/>
            <rect id="background" x="0" y="0" width="1000" height="1000"/>
            <g id="logo" transform="matrix(3.79635,0,0,3.79635,-1201.32,-492.044)">
                <g id="e" transform="matrix(177.245,0,0,177.245,339.679,290.856)">
                    <path d="M0.46,0.079L0.456,0.079C0.431,0.079 0.412,0.098 0.412,0.123L0.412,0.127C0.412,0.15 0.4,0.167 0.375,0.167L0.208,0.167C0.184,0.167 0.167,0.149 0.167,0.125L0.167,0.04C0.167,0.011 0.178,0 0.206,0L0.458,0C0.483,0 0.5,-0.017 0.5,-0.042L0.5,-0.46C0.5,-0.485 0.485,-0.5 0.46,-0.5L0.458,-0.5C0.434,-0.5 0.417,-0.518 0.417,-0.542L0.417,-0.544C0.417,-0.569 0.402,-0.583 0.377,-0.583L0.206,-0.583C0.181,-0.583 0.167,-0.569 0.167,-0.544L0.167,-0.542C0.167,-0.518 0.149,-0.5 0.125,-0.5L0.123,-0.5C0.098,-0.5 0.083,-0.485 0.083,-0.46L0.083,0.127C0.083,0.152 0.098,0.167 0.123,0.167L0.125,0.167C0.149,0.167 0.167,0.184 0.167,0.208L0.167,0.21C0.167,0.235 0.181,0.25 0.206,0.25L0.377,0.25C0.402,0.25 0.417,0.235 0.417,0.21L0.417,0.208C0.417,0.183 0.433,0.171 0.456,0.171L0.46,0.171C0.485,0.171 0.504,0.152 0.504,0.127L0.504,0.123C0.504,0.098 0.485,0.079 0.46,0.079ZM0.167,-0.46C0.167,-0.489 0.178,-0.5 0.206,-0.5L0.377,-0.5C0.405,-0.5 0.417,-0.489 0.417,-0.46L0.417,-0.123C0.417,-0.095 0.405,-0.083 0.377,-0.083L0.206,-0.083C0.178,-0.083 0.167,-0.095 0.167,-0.123L0.167,-0.46Z" style="fill:white;fill-rule:nonzero;"/>
                </g>
                <g id="dot" transform="matrix(177.245,0,0,177.245,425.989,290.856)">
                    <path d="M0.127,-0.167L0.123,-0.167C0.098,-0.167 0.083,-0.152 0.083,-0.127L0.083,-0.04C0.083,-0.015 0.098,0 0.123,0L0.127,0C0.152,0 0.167,-0.015 0.167,-0.04L0.167,-0.127C0.167,-0.152 0.152,-0.167 0.127,-0.167Z" style="fill:white;fill-rule:nonzero;"/>
                </g>
                <g id="g" transform="matrix(177.245,0,0,177.245,453.218,290.856)">
                    <path d="M0.46,-0.583L0.456,-0.583C0.431,-0.583 0.417,-0.569 0.417,-0.544L0.417,-0.542C0.417,-0.518 0.399,-0.5 0.375,-0.5C0.351,-0.5 0.333,-0.518 0.333,-0.542L0.333,-0.544C0.333,-0.569 0.319,-0.583 0.294,-0.583L0.206,-0.583C0.181,-0.583 0.167,-0.569 0.167,-0.544L0.167,-0.542C0.167,-0.518 0.149,-0.5 0.125,-0.5L0.123,-0.5C0.098,-0.5 0.083,-0.485 0.083,-0.46L0.083,-0.123C0.083,-0.098 0.098,-0.083 0.123,-0.083L0.125,-0.083C0.149,-0.083 0.167,-0.066 0.167,-0.042L0.167,-0.04C0.167,-0.015 0.181,0 0.206,0L0.294,0C0.319,0 0.333,-0.015 0.333,-0.04L0.333,-0.042C0.333,-0.066 0.351,-0.083 0.375,-0.083C0.399,-0.083 0.417,-0.066 0.417,-0.042L0.417,0.125C0.417,0.149 0.399,0.167 0.375,0.167L0.208,0.167C0.183,0.167 0.171,0.15 0.171,0.127L0.171,0.123C0.171,0.098 0.152,0.079 0.127,0.079L0.123,0.079C0.098,0.079 0.079,0.098 0.079,0.123L0.079,0.127C0.079,0.152 0.098,0.171 0.123,0.171L0.127,0.171C0.15,0.171 0.167,0.183 0.167,0.208L0.167,0.21C0.167,0.235 0.181,0.25 0.206,0.25L0.377,0.25C0.402,0.25 0.417,0.235 0.417,0.21L0.417,0.208C0.417,0.184 0.434,0.167 0.458,0.167L0.46,0.167C0.485,0.167 0.5,0.152 0.5,0.127L0.5,-0.544C0.5,-0.569 0.485,-0.583 0.46,-0.583ZM0.417,-0.375L0.417,-0.208C0.417,-0.184 0.399,-0.167 0.375,-0.167L0.373,-0.167C0.348,-0.167 0.333,-0.152 0.333,-0.127L0.333,-0.125C0.333,-0.101 0.316,-0.083 0.292,-0.083L0.208,-0.083C0.184,-0.083 0.167,-0.101 0.167,-0.125L0.167,-0.458C0.167,-0.482 0.184,-0.5 0.208,-0.5L0.292,-0.5C0.316,-0.5 0.333,-0.482 0.333,-0.458L0.333,-0.456C0.333,-0.431 0.348,-0.417 0.373,-0.417L0.375,-0.417C0.399,-0.417 0.417,-0.399 0.417,-0.375Z" style="fill:white;fill-rule:nonzero;"/>
                </g>
            </g>
        </g>
    </g>
</svg>
